<svg width="15" height="15" viewBox="0 0 15 15" fill="none" xmlns="http://www.w3.org/2000/svg">
<g clip-path="url(#clip0)">
<path d="M7.91162 10.9301L14.8304 3.99219C15.0569 3.76487 15.0565 3.39685 14.8292 3.16991C14.6019 2.94316 14.2337 2.94374 14.0069 3.17109L7.49997 9.69606L0.993049 3.17085C0.766292 2.94354 0.398294 2.94295 0.170952 3.16968C0.0569878 3.28344 4.74947e-06 3.43247 4.74295e-06 3.5815C4.73646e-06 3.73016 0.0566063 3.8786 0.16978 3.99216L7.08836 10.9301C7.19728 11.0396 7.34552 11.101 7.49997 11.101C7.65443 11.101 7.80249 11.0394 7.91162 10.9301Z" fill="black" fill-opacity="0.4"/>
</g>
<defs>
<clipPath id="clip0">
<rect width="14.101" height="15" fill="white" transform="translate(15) rotate(90)"/>
</clipPath>
</defs>
</svg>
