<svg width="20" height="20" viewBox="0 0 20 20" fill="none" xmlns="http://www.w3.org/2000/svg">
<mask id="path-1-inside-1" fill="white">
<path d="M10.013 20C8.28964 20 6.88797 18.5983 6.88797 16.875C6.88797 16.53 7.16797 16.25 7.51297 16.25C7.85797 16.25 8.13797 16.53 8.13797 16.875C8.13797 17.9092 8.97888 18.75 10.013 18.75C11.0472 18.75 11.888 17.9092 11.888 16.875C11.888 16.53 12.168 16.25 12.513 16.25C12.858 16.25 13.138 16.53 13.138 16.875C13.138 18.5983 11.7363 20 10.013 20Z"/>
</mask>
<path d="M10.013 20C8.28964 20 6.88797 18.5983 6.88797 16.875C6.88797 16.53 7.16797 16.25 7.51297 16.25C7.85797 16.25 8.13797 16.53 8.13797 16.875C8.13797 17.9092 8.97888 18.75 10.013 18.75C11.0472 18.75 11.888 17.9092 11.888 16.875C11.888 16.53 12.168 16.25 12.513 16.25C12.858 16.25 13.138 16.53 13.138 16.875C13.138 18.5983 11.7363 20 10.013 20Z" fill="black" stroke="white" stroke-width="0.2" mask="url(#path-1-inside-1)"/>
<mask id="path-2-inside-2" fill="white">
<path d="M16.888 17.5H3.13797C2.33383 17.5 1.67969 16.8459 1.67969 16.0417C1.67969 15.6149 1.86554 15.2109 2.18964 14.9333C3.45718 13.8625 4.17969 12.3059 4.17969 10.6567V8.33328C4.17969 5.11673 6.79642 2.5 10.013 2.5C13.2297 2.5 15.8464 5.11673 15.8464 8.33328V10.6567C15.8464 12.3059 16.5689 13.8625 17.8281 14.9275C18.1606 15.2109 18.3464 15.6149 18.3464 16.0417C18.3464 16.8459 17.6923 17.5 16.888 17.5ZM10.013 3.75C7.4855 3.75 5.42969 5.80582 5.42969 8.33328V10.6567C5.42969 12.6741 4.54559 14.5792 3.00476 15.8817C2.97546 15.9067 2.92969 15.9584 2.92969 16.0417C2.92969 16.1549 3.02475 16.25 3.13797 16.25H16.888C17.0013 16.25 17.0964 16.1549 17.0964 16.0417C17.0964 15.9584 17.0505 15.9067 17.023 15.8833C15.4805 14.5792 14.5964 12.6741 14.5964 10.6567V8.33328C14.5964 5.80582 12.5406 3.75 10.013 3.75Z"/>
</mask>
<path d="M16.888 17.5H3.13797C2.33383 17.5 1.67969 16.8459 1.67969 16.0417C1.67969 15.6149 1.86554 15.2109 2.18964 14.9333C3.45718 13.8625 4.17969 12.3059 4.17969 10.6567V8.33328C4.17969 5.11673 6.79642 2.5 10.013 2.5C13.2297 2.5 15.8464 5.11673 15.8464 8.33328V10.6567C15.8464 12.3059 16.5689 13.8625 17.8281 14.9275C18.1606 15.2109 18.3464 15.6149 18.3464 16.0417C18.3464 16.8459 17.6923 17.5 16.888 17.5ZM10.013 3.75C7.4855 3.75 5.42969 5.80582 5.42969 8.33328V10.6567C5.42969 12.6741 4.54559 14.5792 3.00476 15.8817C2.97546 15.9067 2.92969 15.9584 2.92969 16.0417C2.92969 16.1549 3.02475 16.25 3.13797 16.25H16.888C17.0013 16.25 17.0964 16.1549 17.0964 16.0417C17.0964 15.9584 17.0505 15.9067 17.023 15.8833C15.4805 14.5792 14.5964 12.6741 14.5964 10.6567V8.33328C14.5964 5.80582 12.5406 3.75 10.013 3.75Z" fill="black" stroke="white" stroke-width="0.2" mask="url(#path-2-inside-2)"/>
<mask id="path-3-inside-3" fill="white">
<path d="M10.013 3.75C9.66797 3.75 9.38797 3.47 9.38797 3.125V0.625C9.38797 0.279999 9.66797 0 10.013 0C10.358 0 10.638 0.279999 10.638 0.625V3.125C10.638 3.47 10.358 3.75 10.013 3.75Z"/>
</mask>
<path d="M10.013 3.75C9.66797 3.75 9.38797 3.47 9.38797 3.125V0.625C9.38797 0.279999 9.66797 0 10.013 0C10.358 0 10.638 0.279999 10.638 0.625V3.125C10.638 3.47 10.358 3.75 10.013 3.75Z" fill="black" stroke="white" stroke-width="0.2" mask="url(#path-3-inside-3)"/>
</svg>
