<svg width="24" height="24" viewBox="0 0 24 24" fill="none" xmlns="http://www.w3.org/2000/svg">
<path d="M21.375 3H19.5V2.25C19.5 1.85218 19.342 1.47064 19.0607 1.18934C18.7794 0.908035 18.3978 0.75 18 0.75C17.6022 0.75 17.2206 0.908035 16.9393 1.18934C16.658 1.47064 16.5 1.85218 16.5 2.25V3H13.5V2.25C13.5 1.85218 13.342 1.47064 13.0607 1.18934C12.7794 0.908035 12.3978 0.75 12 0.75C11.6022 0.75 11.2206 0.908035 10.9393 1.18934C10.658 1.47064 10.5 1.85218 10.5 2.25V3H7.5V2.25C7.5 1.85218 7.34196 1.47064 7.06066 1.18934C6.77936 0.908035 6.39782 0.75 6 0.75C5.60218 0.75 5.22064 0.908035 4.93934 1.18934C4.65804 1.47064 4.5 1.85218 4.5 2.25V3H2.625C2.12772 3 1.65081 3.19754 1.29917 3.54917C0.947544 3.90081 0.75 4.37772 0.75 4.875V19.875C0.75 20.3723 0.947544 20.8492 1.29917 21.2008C1.65081 21.5525 2.12772 21.75 2.625 21.75H13.125C13.2245 21.75 13.3198 21.7105 13.3902 21.6402C13.4605 21.5698 13.5 21.4745 13.5 21.375C13.5 21.2755 13.4605 21.1802 13.3902 21.1098C13.3198 21.0395 13.2245 21 13.125 21H2.625C2.32691 20.9991 2.04127 20.8803 1.83049 20.6695C1.6197 20.4587 1.50089 20.1731 1.5 19.875V8.25H22.5V14.625C22.5 14.7245 22.5395 14.8198 22.6098 14.8902C22.6802 14.9605 22.7755 15 22.875 15C22.9745 15 23.0698 14.9605 23.1402 14.8902C23.2105 14.8198 23.25 14.7245 23.25 14.625V4.875C23.25 4.37772 23.0525 3.90081 22.7008 3.54917C22.3492 3.19754 21.8723 3 21.375 3ZM17.25 2.25C17.25 2.05109 17.329 1.86032 17.4697 1.71967C17.6103 1.57902 17.8011 1.5 18 1.5C18.1989 1.5 18.3897 1.57902 18.5303 1.71967C18.671 1.86032 18.75 2.05109 18.75 2.25V4.5C18.75 4.69891 18.671 4.88968 18.5303 5.03033C18.3897 5.17098 18.1989 5.25 18 5.25C17.8011 5.25 17.6103 5.17098 17.4697 5.03033C17.329 4.88968 17.25 4.69891 17.25 4.5V2.25ZM11.25 2.25C11.25 2.05109 11.329 1.86032 11.4697 1.71967C11.6103 1.57902 11.8011 1.5 12 1.5C12.1989 1.5 12.3897 1.57902 12.5303 1.71967C12.671 1.86032 12.75 2.05109 12.75 2.25V4.5C12.75 4.69891 12.671 4.88968 12.5303 5.03033C12.3897 5.17098 12.1989 5.25 12 5.25C11.8011 5.25 11.6103 5.17098 11.4697 5.03033C11.329 4.88968 11.25 4.69891 11.25 4.5V2.25ZM5.25 2.25C5.25 2.05109 5.32902 1.86032 5.46967 1.71967C5.61032 1.57902 5.80109 1.5 6 1.5C6.19891 1.5 6.38968 1.57902 6.53033 1.71967C6.67098 1.86032 6.75 2.05109 6.75 2.25V4.5C6.75 4.69891 6.67098 4.88968 6.53033 5.03033C6.38968 5.17098 6.19891 5.25 6 5.25C5.80109 5.25 5.61032 5.17098 5.46967 5.03033C5.32902 4.88968 5.25 4.69891 5.25 4.5V2.25ZM22.5 7.5H1.5V4.875C1.50089 4.57691 1.6197 4.29127 1.83049 4.08049C2.04127 3.8697 2.32691 3.75089 2.625 3.75H4.5V4.5C4.5 4.89782 4.65804 5.27936 4.93934 5.56066C5.22064 5.84196 5.60218 6 6 6C6.39782 6 6.77936 5.84196 7.06066 5.56066C7.34196 5.27936 7.5 4.89782 7.5 4.5V3.75H10.5V4.5C10.5 4.89782 10.658 5.27936 10.9393 5.56066C11.2206 5.84196 11.6022 6 12 6C12.3978 6 12.7794 5.84196 13.0607 5.56066C13.342 5.27936 13.5 4.89782 13.5 4.5V3.75H16.5V4.5C16.5 4.89782 16.658 5.27936 16.9393 5.56066C17.2206 5.84196 17.6022 6 18 6C18.3978 6 18.7794 5.84196 19.0607 5.56066C19.342 5.27936 19.5 4.89782 19.5 4.5V3.75H21.375C21.6731 3.75089 21.9587 3.8697 22.1695 4.08049C22.3803 4.29127 22.4991 4.57691 22.5 4.875V7.5Z" fill="#5B8DEF"/>
<path d="M11.25 10.875C11.25 10.6761 11.171 10.4853 11.0303 10.3447C10.8897 10.204 10.6989 10.125 10.5 10.125H9C8.80109 10.125 8.61032 10.204 8.46967 10.3447C8.32902 10.4853 8.25 10.6761 8.25 10.875V12C8.25 12.1989 8.32902 12.3897 8.46967 12.5303C8.61032 12.671 8.80109 12.75 9 12.75H10.5C10.6989 12.75 10.8897 12.671 11.0303 12.5303C11.171 12.3897 11.25 12.1989 11.25 12V10.875ZM9 12V10.875H10.5V12H9Z" fill="#5B8DEF"/>
<path d="M6.75 10.875C6.75 10.6761 6.67098 10.4853 6.53033 10.3447C6.38968 10.204 6.19891 10.125 6 10.125H4.5C4.30109 10.125 4.11032 10.204 3.96967 10.3447C3.82902 10.4853 3.75 10.6761 3.75 10.875V12C3.75 12.1989 3.82902 12.3897 3.96967 12.5303C4.11032 12.671 4.30109 12.75 4.5 12.75H6C6.19891 12.75 6.38968 12.671 6.53033 12.5303C6.67098 12.3897 6.75 12.1989 6.75 12V10.875ZM4.5 12V10.875H6V12H4.5Z" fill="#5B8DEF"/>
<path d="M19.5 12.75C19.6989 12.75 19.8897 12.671 20.0303 12.5303C20.171 12.3897 20.25 12.1989 20.25 12V10.875C20.25 10.6761 20.171 10.4853 20.0303 10.3447C19.8897 10.204 19.6989 10.125 19.5 10.125H18C17.8011 10.125 17.6103 10.204 17.4697 10.3447C17.329 10.4853 17.25 10.6761 17.25 10.875V12C17.25 12.1989 17.329 12.3897 17.4697 12.5303C17.6103 12.671 17.8011 12.75 18 12.75H19.5ZM18 10.875H19.5V12H18V10.875Z" fill="#5B8DEF"/>
<path d="M11.25 14.25C11.25 14.0511 11.171 13.8603 11.0303 13.7197C10.8897 13.579 10.6989 13.5 10.5 13.5H9C8.80109 13.5 8.61032 13.579 8.46967 13.7197C8.32902 13.8603 8.25 14.0511 8.25 14.25V15.375C8.25 15.5739 8.32902 15.7647 8.46967 15.9053C8.61032 16.046 8.80109 16.125 9 16.125H10.5C10.6989 16.125 10.8897 16.046 11.0303 15.9053C11.171 15.7647 11.25 15.5739 11.25 15.375V14.25ZM9 15.375V14.25H10.5V15.375H9Z" fill="#5B8DEF"/>
<path d="M6.75 14.25C6.75 14.0511 6.67098 13.8603 6.53033 13.7197C6.38968 13.579 6.19891 13.5 6 13.5H4.5C4.30109 13.5 4.11032 13.579 3.96967 13.7197C3.82902 13.8603 3.75 14.0511 3.75 14.25V15.375C3.75 15.5739 3.82902 15.7647 3.96967 15.9053C4.11032 16.046 4.30109 16.125 4.5 16.125H6C6.19891 16.125 6.38968 16.046 6.53033 15.9053C6.67098 15.7647 6.75 15.5739 6.75 15.375V14.25ZM4.5 15.375V14.25H6V15.375H4.5Z" fill="#5B8DEF"/>
<path d="M10.5 16.875H9C8.80109 16.875 8.61032 16.954 8.46967 17.0947C8.32902 17.2353 8.25 17.4261 8.25 17.625V18.75C8.25 18.9489 8.32902 19.1397 8.46967 19.2803C8.61032 19.421 8.80109 19.5 9 19.5H10.5C10.6989 19.5 10.8897 19.421 11.0303 19.2803C11.171 19.1397 11.25 18.9489 11.25 18.75V17.625C11.25 17.4261 11.171 17.2353 11.0303 17.0947C10.8897 16.954 10.6989 16.875 10.5 16.875ZM9 18.75V17.625H10.5V18.75H9Z" fill="#5B8DEF"/>
<path d="M13.5 12.75H15C15.1989 12.75 15.3897 12.671 15.5303 12.5303C15.671 12.3897 15.75 12.1989 15.75 12V10.875C15.75 10.6761 15.671 10.4853 15.5303 10.3447C15.3897 10.204 15.1989 10.125 15 10.125H13.5C13.3011 10.125 13.1103 10.204 12.9697 10.3447C12.829 10.4853 12.75 10.6761 12.75 10.875V12C12.75 12.1989 12.829 12.3897 12.9697 12.5303C13.1103 12.671 13.3011 12.75 13.5 12.75ZM13.5 10.875H15V12H13.5V10.875Z" fill="#5B8DEF"/>
<path d="M12.75 15.375C12.75 15.5739 12.829 15.7647 12.9697 15.9053C13.1103 16.046 13.3011 16.125 13.5 16.125C13.5995 16.125 13.6948 16.0855 13.7652 16.0152C13.8355 15.9448 13.875 15.8495 13.875 15.75C13.875 15.6505 13.8355 15.5552 13.7652 15.4848C13.6948 15.4145 13.5995 15.375 13.5 15.375V14.25H15C15.0995 14.25 15.1948 14.2105 15.2652 14.1402C15.3355 14.0698 15.375 13.9745 15.375 13.875C15.375 13.7755 15.3355 13.6802 15.2652 13.6098C15.1948 13.5395 15.0995 13.5 15 13.5H13.5C13.3011 13.5 13.1103 13.579 12.9697 13.7197C12.829 13.8603 12.75 14.0511 12.75 14.25V15.375Z" fill="#5B8DEF"/>
<path d="M6 16.875H4.5C4.30109 16.875 4.11032 16.954 3.96967 17.0947C3.82902 17.2353 3.75 17.4261 3.75 17.625V18.75C3.75 18.9489 3.82902 19.1397 3.96967 19.2803C4.11032 19.421 4.30109 19.5 4.5 19.5H6C6.19891 19.5 6.38968 19.421 6.53033 19.2803C6.67098 19.1397 6.75 18.9489 6.75 18.75V17.625C6.75 17.4261 6.67098 17.2353 6.53033 17.0947C6.38968 16.954 6.19891 16.875 6 16.875ZM4.5 18.75V17.625H6V18.75H4.5Z" fill="#5B8DEF"/>
<path d="M18.375 13.5C17.4108 13.5 16.4683 13.7859 15.6666 14.3216C14.8649 14.8573 14.2401 15.6186 13.8711 16.5094C13.5021 17.4002 13.4056 18.3804 13.5937 19.3261C13.7818 20.2717 14.2461 21.1404 14.9279 21.8221C15.6096 22.5039 16.4783 22.9682 17.4239 23.1563C18.3696 23.3444 19.3498 23.2479 20.2406 22.8789C21.1314 22.5099 21.8927 21.8851 22.4284 21.0834C22.9641 20.2817 23.25 19.3392 23.25 18.375C23.2485 17.0825 22.7344 15.8434 21.8205 14.9295C20.9066 14.0156 19.6675 13.5015 18.375 13.5ZM18.375 22.5C17.5591 22.5 16.7616 22.2581 16.0833 21.8048C15.4049 21.3516 14.8762 20.7073 14.564 19.9536C14.2518 19.1998 14.1701 18.3704 14.3293 17.5703C14.4884 16.7701 14.8813 16.0351 15.4582 15.4582C16.0351 14.8813 16.7701 14.4884 17.5702 14.3293C18.3704 14.1701 19.1998 14.2518 19.9536 14.564C20.7073 14.8762 21.3515 15.4049 21.8048 16.0833C22.2581 16.7616 22.5 17.5592 22.5 18.375C22.4987 19.4686 22.0637 20.5171 21.2904 21.2904C20.5171 22.0637 19.4686 22.4987 18.375 22.5Z" fill="#5B8DEF"/>
<path d="M20.5418 16.803L17.625 19.7198L16.2994 18.3938C16.2287 18.3255 16.1339 18.2877 16.0356 18.2885C15.9373 18.2894 15.8432 18.3288 15.7737 18.3983C15.7042 18.4679 15.6647 18.5619 15.6639 18.6602C15.663 18.7586 15.7008 18.8533 15.7691 18.924L17.3599 20.5151C17.4302 20.5854 17.5256 20.6249 17.625 20.6249C17.7245 20.6249 17.8198 20.5854 17.8901 20.5151L21.072 17.3333C21.1403 17.2625 21.1781 17.1678 21.1773 17.0695C21.1764 16.9712 21.137 16.8771 21.0674 16.8076C20.9979 16.7381 20.9039 16.6986 20.8055 16.6978C20.7072 16.6969 20.6125 16.7347 20.5418 16.803Z" fill="#5B8DEF"/>
</svg>
