<svg width="100%" height="100%" viewBox="0 0 20 20" fill="none" xmlns="http://www.w3.org/2000/svg">
<g clip-path="url(#clip0)">
<path d="M19.3346 4.58187C18.9354 4.16362 18.384 3.91647 17.7567 3.91647H14.6008V3.87844C14.6008 3.40316 14.4106 2.94688 14.0875 2.6427C13.7643 2.31951 13.327 2.12939 12.8517 2.12939H7.14829C6.65399 2.12939 6.21673 2.31951 5.89354 2.6427C5.57034 2.9659 5.38023 3.40316 5.38023 3.87844V3.91647H2.24335C1.61597 3.91647 1.06464 4.16362 0.665399 4.58187C0.26616 4.98111 0 5.55145 0 6.15981V15.6275C0 16.2549 0.247148 16.8062 0.665399 17.2054C1.06464 17.6047 1.63498 17.8708 2.24335 17.8708H17.7567C18.384 17.8708 18.9354 17.6237 19.3346 17.2054C19.7338 16.8062 20 16.2359 20 15.6275V6.15981C20 5.53244 19.7529 4.98111 19.3346 4.58187ZM19.0114 15.6275H18.9924C18.9924 15.9697 18.8593 16.2739 18.6312 16.502C18.403 16.7302 18.0989 16.8632 17.7567 16.8632H2.24335C1.90114 16.8632 1.59696 16.7302 1.36882 16.502C1.14068 16.2739 1.0076 15.9697 1.0076 15.6275V6.15981C1.0076 5.81761 1.14068 5.51342 1.36882 5.28529C1.59696 5.05715 1.90114 4.92407 2.24335 4.92407H5.91255C6.19772 4.92407 6.42586 4.69593 6.42586 4.41076V3.85943C6.42586 3.65031 6.5019 3.46019 6.63498 3.32711C6.76806 3.19403 6.95818 3.11799 7.1673 3.11799H12.8517C13.0608 3.11799 13.251 3.19403 13.384 3.32711C13.5171 3.46019 13.5932 3.65031 13.5932 3.85943V4.41076C13.5932 4.69593 13.8213 4.92407 14.1065 4.92407H17.7757C18.1179 4.92407 18.4221 5.05715 18.6502 5.28529C18.8783 5.51342 19.0114 5.81761 19.0114 6.15981V15.6275Z" fill="#787878"/>
<path d="M10.0001 6.2168C8.70727 6.2168 7.52857 6.74912 6.69206 7.58562C5.83655 8.44114 5.32324 9.60083 5.32324 10.8936C5.32324 12.1864 5.85556 13.3651 6.69206 14.2016C7.54758 15.0571 8.70727 15.5704 10.0001 15.5704C11.2928 15.5704 12.4715 15.0381 13.308 14.2016C14.1636 13.3461 14.6769 12.1864 14.6769 10.8936C14.6769 9.60083 14.1445 8.42212 13.308 7.58562C12.4715 6.74912 11.2928 6.2168 10.0001 6.2168ZM12.5856 13.4982C11.9202 14.1446 11.0077 14.5628 10.0001 14.5628C8.99245 14.5628 8.0799 14.1446 7.4145 13.4982C6.7491 12.8328 6.34986 11.9202 6.34986 10.9126C6.34986 9.90502 6.76811 8.99247 7.4145 8.32707C8.0799 7.66167 8.99245 7.26243 10.0001 7.26243C11.0077 7.26243 11.9202 7.68068 12.5856 8.32707C13.251 8.99247 13.6502 9.90502 13.6502 10.9126C13.6693 11.9202 13.251 12.8328 12.5856 13.4982Z" fill="#787878"/>
<path d="M16.7681 8.06087C17.2826 8.06087 17.6997 7.6438 17.6997 7.12931C17.6997 6.61483 17.2826 6.19775 16.7681 6.19775C16.2536 6.19775 15.8365 6.61483 15.8365 7.12931C15.8365 7.6438 16.2536 8.06087 16.7681 8.06087Z" fill="#787878"/>
</g>
<defs>
<clipPath id="clip0">
<rect width="20" height="20" fill="white"/>
</clipPath>
</defs>
</svg>
