<svg width="24" height="24" viewBox="0 0 24 24" fill="none" xmlns="http://www.w3.org/2000/svg">
<path d="M3.87063 17.7873V17.7375L3.82081 17.7373C2.14766 17.7314 0.788281 16.3685 0.788281 14.694V4.71057C0.788281 3.03229 2.1536 1.66724 3.83162 1.66724H20.1449C21.823 1.66724 23.1883 3.03229 23.1883 4.71057V14.694C23.1883 16.372 21.823 17.7373 20.1449 17.7373H10.3313H10.3156L10.3027 17.7463L3.87063 22.2219V17.7873ZM3.83162 16.5189H5.08899V19.7942V19.8899L5.16755 19.8353L9.93332 16.5189H20.1449C21.1513 16.5189 21.9699 15.7002 21.9699 14.694V4.71057C21.9699 3.70408 21.1513 2.8856 20.1449 2.8856H3.83162C2.82526 2.8856 2.00664 3.70408 2.00664 4.71057V14.694C2.00664 15.7002 2.82526 16.5189 3.83162 16.5189Z" fill="#5B8DEF" stroke="#F2F2F5" stroke-width="0.1"/>
<path d="M6.81028 6.32557H17.1663V7.54393H6.81028V6.32557Z" fill="#5B8DEF" stroke="#F2F2F5" stroke-width="0.1"/>
<path d="M6.81028 9.13807H17.1663V10.3564H6.81028V9.13807Z" fill="#5B8DEF" stroke="#F2F2F5" stroke-width="0.1"/>
<path d="M6.81028 11.9506H17.1663V13.169H6.81028V11.9506Z" fill="#5B8DEF" stroke="#F2F2F5" stroke-width="0.1"/>
</svg>
