<svg width="22" height="22" viewBox="0 0 22 22" fill="none" xmlns="http://www.w3.org/2000/svg">
<g clip-path="url(#clip0)">
<path d="M3.06316 9.63374L3.07811 9.61904L10.414 2.40897C10.4948 2.32955 10.5884 2.26995 10.6882 2.23021L10.6882 2.23021C10.9623 2.12118 11.2843 2.16187 11.523 2.35311L11.523 2.35311C11.5447 2.37048 11.5656 2.38909 11.5858 2.40897C11.5859 2.40898 11.5859 2.40899 11.5859 2.409M3.06316 9.63374L11.5508 2.44463L11.5859 2.409M3.06316 9.63374V9.6547V18.2606C3.06316 19.1242 3.76574 19.8268 4.6294 19.8268H17.3704C18.2174 19.8268 18.9094 19.1512 18.9359 18.3106H18.9367V18.2606V9.65466V9.6337L18.9218 9.619L11.5859 2.409M3.06316 9.63374L11.5859 2.409M12.4193 1.56097L12.4544 1.52532L12.4193 1.56098L21.7721 10.7533C22.0063 10.9835 22.0096 11.3599 21.7794 11.5941C21.6631 11.7125 21.5093 11.7719 21.3554 11.7719C21.2049 11.7719 21.0545 11.7151 20.9387 11.6014L20.2108 10.886L20.1258 10.8024V10.9216V18.2606C20.1258 19.7798 18.8897 21.0159 17.3705 21.0159H4.6294C3.11018 21.0159 1.87409 19.7798 1.87409 18.2606V10.9216V10.8024L1.78905 10.886L1.0612 11.6014C0.82704 11.8315 0.450621 11.8282 0.220452 11.5941C-0.00970751 11.3599 -0.00646239 10.9835 0.227748 10.7533L9.58054 1.56093C10.3631 0.791792 11.6368 0.79175 12.4193 1.56097Z" fill="#5B8DEF" stroke="#F2F2F5" stroke-width="0.1"/>
<path d="M9.06329 10.5881H9.11329V10.5381V8.46395C9.11329 8.13561 9.37948 7.86942 9.70782 7.86942H12.2802C12.6085 7.86942 12.8747 8.13561 12.8747 8.46395V10.5381V10.5881H12.9247H14.9986C15.327 10.5881 15.5932 10.8543 15.5932 11.1826V13.755C15.5932 14.0833 15.327 14.3495 14.9986 14.3495H12.9247H12.8747V14.3995V16.4736C12.8747 16.8019 12.6085 17.0681 12.2802 17.0681H9.70782C9.37948 17.0681 9.11329 16.8019 9.11329 16.4736V14.3995V14.3495H9.06329H6.98901C6.66067 14.3495 6.39448 14.0833 6.39448 13.755V11.1826C6.39448 10.8543 6.66067 10.5881 6.98901 10.5881H9.06329ZM10.3524 9.05848H10.3024V9.10848V11.1826C10.3024 11.511 10.0362 11.7771 9.70782 11.7771H7.63355H7.58355V11.8271V13.1104V13.1604H7.63355H9.70782C10.0362 13.1604 10.3024 13.4266 10.3024 13.755V15.8291V15.8791H10.3524H11.6357H11.6857V15.8291V13.755C11.6857 13.4266 11.9518 13.1604 12.2802 13.1604H14.3541H14.4041V13.1104V11.8271V11.7771H14.3541H12.2802C11.9518 11.7771 11.6857 11.511 11.6857 11.1826V9.10848V9.05848H11.6357H10.3524Z" fill="#5B8DEF" stroke="#F2F2F5" stroke-width="0.1"/>
</g>
<defs>
<clipPath id="clip0">
<rect width="22" height="22" fill="white"/>
</clipPath>
</defs>
</svg>
