<svg width="24" height="24" viewBox="0 0 24 24" fill="none" xmlns="http://www.w3.org/2000/svg">
<path d="M12 3.91299C12.287 3.91299 12.5217 3.6782 12.5217 3.39125V3.13038C12.5217 2.84342 12.287 2.60864 12 2.60864C11.7131 2.60864 11.4783 2.84342 11.4783 3.13038V3.39125C11.4783 3.6782 11.7131 3.91299 12 3.91299Z" fill="#5B8DEF"/>
<path d="M12 20.0869C11.7131 20.0869 11.4783 20.3217 11.4783 20.6087V20.8695C11.4783 21.1565 11.7131 21.3913 12 21.3913C12.287 21.3913 12.5217 21.1565 12.5217 20.8695V20.6087C12.5217 20.3217 12.287 20.0869 12 20.0869Z" fill="#5B8DEF"/>
<path d="M3.39131 11.4783H3.13044C2.84349 11.4783 2.6087 11.7131 2.6087 12C2.6087 12.287 2.84349 12.5217 3.13044 12.5217H3.39131C3.67827 12.5217 3.91305 12.287 3.91305 12C3.91305 11.7131 3.67827 11.4783 3.39131 11.4783Z" fill="#5B8DEF"/>
<path d="M20.8695 11.4783H20.6087C20.3217 11.4783 20.0869 11.7131 20.0869 12C20.0869 12.287 20.3217 12.5217 20.6087 12.5217H20.8695C21.1565 12.5217 21.3913 12.287 21.3913 12C21.3913 11.7131 21.1565 11.4783 20.8695 11.4783Z" fill="#5B8DEF"/>
<path d="M6.10437 5.37393C5.89567 5.16523 5.58263 5.16523 5.37393 5.37393C5.16523 5.58262 5.16523 5.89567 5.37393 6.10436L5.55654 6.28697C5.66089 6.39132 5.79132 6.44349 5.92176 6.44349C6.05219 6.44349 6.18263 6.39132 6.28698 6.28697C6.49567 6.07828 6.49567 5.76523 6.28698 5.55654L6.10437 5.37393Z" fill="#5B8DEF"/>
<path d="M5.55654 17.713L5.37393 17.8956C5.16523 18.1043 5.16523 18.4174 5.37393 18.6261C5.47828 18.7304 5.60871 18.7826 5.73915 18.7826C5.86958 18.7826 6.00002 18.7304 6.10437 18.6261L6.28698 18.4435C6.49567 18.2348 6.49567 17.9217 6.28698 17.713C6.07828 17.5043 5.76524 17.5043 5.55654 17.713Z" fill="#5B8DEF"/>
<path d="M17.8956 5.37393L17.713 5.55654C17.5043 5.76523 17.5043 6.07828 17.713 6.28697C17.8174 6.39132 17.9478 6.44349 18.0782 6.44349C18.2087 6.44349 18.3391 6.39132 18.4435 6.28697L18.6261 6.10436C18.8348 5.89567 18.8348 5.58262 18.6261 5.37393C18.4174 5.16523 18.1043 5.16523 17.8956 5.37393Z" fill="#5B8DEF"/>
<path d="M12.5217 11.7913V7.04347C12.5217 6.75651 12.287 6.52173 12 6.52173C11.7131 6.52173 11.4783 6.75651 11.4783 7.04347V12C11.4783 12.1304 11.5304 12.2609 11.6348 12.3652L17.3478 18.0783C17.4522 18.1826 17.5826 18.2348 17.713 18.2348C17.8435 18.2348 17.9739 18.1826 18.0782 18.0783C18.2869 17.8696 18.2869 17.5565 18.0782 17.3478L12.5217 11.7913Z" fill="#5B8DEF"/>
<path d="M12 0C5.37391 0 0 5.37391 0 12C0 18.6261 5.37391 24 12 24C18.6261 24 24 18.6261 24 12C24 5.37391 18.6261 0 12 0ZM12 22.9565C5.94783 22.9565 1.04348 18.0522 1.04348 12C1.04348 5.94783 5.94783 1.04348 12 1.04348C18.0522 1.04348 22.9565 5.94783 22.9565 12C22.9565 18.0522 18.0522 22.9565 12 22.9565Z" fill="#5B8DEF"/>
</svg>
