<svg width="18" height="22" viewBox="0 0 18 22" fill="none" xmlns="http://www.w3.org/2000/svg">
<path d="M8.99997 0C4.51869 0 0.87306 3.64563 0.87306 8.1269C0.87306 9.60217 1.53469 11.1888 1.56241 11.2558C1.7761 11.763 2.19775 12.5508 2.50179 13.0126L8.07398 21.4555C8.30201 21.8016 8.63951 22 8.99997 22C9.36042 22 9.69792 21.8016 9.92595 21.456L15.4986 13.0126C15.8031 12.5508 16.2243 11.763 16.438 11.2558C16.4657 11.1893 17.1269 9.60265 17.1269 8.1269C17.1269 3.64563 13.4812 0 8.99997 0ZM15.5565 10.8848C15.3657 11.3394 14.9732 12.0723 14.7003 12.4863L9.12761 20.9296C9.01765 21.0965 8.98276 21.0965 8.8728 20.9296L3.30014 12.4863C3.02717 12.0723 2.63469 11.3389 2.44394 10.8843C2.43582 10.8647 1.82917 9.40426 1.82917 8.1269C1.82917 4.17292 5.04599 0.956106 8.99997 0.956106C12.9539 0.956106 16.1708 4.17292 16.1708 8.1269C16.1708 9.40617 15.5627 10.8704 15.5565 10.8848Z" fill="#5B8DEF"/>
<path d="M8.99999 3.82492C6.6274 3.82492 4.69749 5.75531 4.69749 8.12741C4.69749 10.4995 6.6274 12.4299 8.99999 12.4299C11.3726 12.4299 13.3025 10.4995 13.3025 8.12741C13.3025 5.75531 11.3726 3.82492 8.99999 3.82492ZM8.99999 11.4738C7.15517 11.4738 5.6536 9.9727 5.6536 8.12741C5.6536 6.28212 7.15517 4.78103 8.99999 4.78103C10.8448 4.78103 12.3464 6.28212 12.3464 8.12741C12.3464 9.9727 10.8448 11.4738 8.99999 11.4738Z" fill="#5B8DEF"/>
</svg>
