<svg width="16" height="22" viewBox="0 0 16 22" fill="none" xmlns="http://www.w3.org/2000/svg">
<path d="M8 0C3.73527 0 0.265625 3.46964 0.265625 7.73438C0.265625 9.17529 0.664762 10.5815 1.42015 11.8015L7.55974 21.6953C7.67735 21.8848 7.88454 22 8.10738 22C8.1091 22 8.11077 22 8.11249 22C8.33726 21.9982 8.54489 21.8795 8.66034 21.6867L14.6434 11.697C15.3572 10.5028 15.7344 9.13253 15.7344 7.73438C15.7344 3.46964 12.2647 0 8 0ZM13.5372 11.0351L8.09763 20.1174L2.51577 11.1223C1.88701 10.1069 1.54609 8.93535 1.54609 7.73438C1.54609 4.18043 4.44605 1.28047 8 1.28047C11.5539 1.28047 14.4496 4.18043 14.4496 7.73438C14.4496 8.89973 14.1312 10.0413 13.5372 11.0351Z" fill="#5B8DEF"/>
<path d="M8 3.86719C5.86763 3.86719 4.13281 5.60201 4.13281 7.73438C4.13281 9.85312 5.8394 11.6016 8 11.6016C10.1872 11.6016 11.8672 9.82983 11.8672 7.73438C11.8672 5.60201 10.1324 3.86719 8 3.86719ZM8 10.3211C6.57099 10.3211 5.41328 9.15952 5.41328 7.73438C5.41328 6.3128 6.57842 5.14766 8 5.14766C9.42158 5.14766 10.5824 6.3128 10.5824 7.73438C10.5824 9.13872 9.45166 10.3211 8 10.3211Z" fill="#5B8DEF"/>
</svg>
