<svg width="21" height="15" viewBox="0 0 21 15" fill="none" xmlns="http://www.w3.org/2000/svg">
<path d="M19.1543 0.306152H1.8457C0.827982 0.306152 0 1.13413 0 2.15186V12.848C0 13.8657 0.827982 14.6937 1.8457 14.6937H19.1543C20.172 14.6937 21 13.8657 21 12.848V2.15186C21 1.13413 20.172 0.306152 19.1543 0.306152ZM18.9134 1.53662L18.6671 1.74174L11.2323 7.93268C10.8079 8.28599 10.192 8.28599 9.76771 7.93268L2.33293 1.74174L2.08659 1.53662H18.9134ZM1.23047 2.42494L7.28815 7.46916L1.23047 11.5007V2.42494ZM19.1543 13.4632H1.8457C1.54842 13.4632 1.29979 13.2513 1.24281 12.9706L8.27474 8.29066L8.98037 8.87825C9.42063 9.24485 9.96036 9.42815 10.5 9.42815C11.0397 9.42815 11.5794 9.24485 12.0197 8.87825L12.7253 8.29066L19.7572 12.9705C19.7002 13.2513 19.4516 13.4632 19.1543 13.4632ZM19.7695 11.5007L13.7119 7.4692L19.7695 2.42494V11.5007Z" fill="#5B8DEF"/>
</svg>
