<svg width="20" height="20" viewBox="0 0 20 20" fill="none" xmlns="http://www.w3.org/2000/svg">
<path d="M1.12784 18.3199L1.12764 18.3197C0.941902 18.1349 0.862468 17.8686 0.913736 17.6126L0.91374 17.6126L1.69927 13.6838L1.69928 13.6837C1.72948 13.5314 1.80461 13.3923 1.91325 13.2837L13.4213 1.77715L13.4213 1.77714C14.5927 0.605486 16.499 0.605455 17.6717 1.77715C18.2389 2.34435 18.5514 3.09843 18.5514 3.90182C18.5514 4.70521 18.2389 5.45907 17.6705 6.02647L17.6705 6.0265L6.16385 17.5343L6.1637 17.5344C6.0553 17.6438 5.91539 17.718 5.7638 17.7483L5.76378 17.7483L1.83595 18.5338L1.8357 18.5338C1.78453 18.5443 1.73236 18.5495 1.68136 18.5495C1.47555 18.5495 1.27496 18.468 1.12784 18.3199ZM0.864711 17.6028H0.86471H0.864711ZM3.19936 14.2131L3.18865 14.2239L3.18568 14.2387L2.69557 16.6942L2.68089 16.7677L2.75441 16.753L5.20885 16.2618L5.22369 16.2589L5.23439 16.2482L16.5634 4.91944L16.5635 4.91936C16.835 4.64659 16.9847 4.28623 16.9847 3.90182C16.9847 3.51743 16.835 3.15686 16.5635 2.88428L16.5634 2.88425C16.0039 2.32343 15.0911 2.32359 14.5284 2.88414L14.5283 2.88421L3.19936 14.2131ZM5.6214 16.9306H5.61021V16.9806V17.0306H5.6214V16.9806V16.9306Z" fill="#5B8DEF" stroke="white" stroke-width="0.1"/>
<path d="M14.9925 7.60011L14.9924 7.59999L11.8501 4.45668L11.8501 4.45667C11.5441 4.15067 11.5441 3.65458 11.8501 3.34859C12.156 3.04261 12.6521 3.04258 12.9583 3.34858C12.9583 3.34859 12.9583 3.34859 12.9583 3.3486L16.1004 6.49189L16.1004 6.4919C16.4064 6.79786 16.4064 7.29387 16.1005 7.59987C15.9468 7.75267 15.7463 7.82988 15.5458 7.82988C15.3452 7.82988 15.1448 7.75358 14.9925 7.60011Z" fill="#5B8DEF" stroke="white" stroke-width="0.1"/>
</svg>
