<svg width="22" height="22" viewBox="0 0 22 22" fill="none" xmlns="http://www.w3.org/2000/svg">
<path d="M18.7782 3.22182C16.7006 1.14421 13.9382 0 11 0C8.06168 0 5.29942 1.14421 3.22182 3.22182C1.14421 5.29942 0 8.06168 0 11C0 13.9382 1.14421 16.7006 3.22182 18.7782C5.29942 20.8558 8.06168 22 11 22C13.9382 22 16.7006 20.8558 18.7782 18.7782C20.8558 16.7006 22 13.9382 22 11C22 8.06168 20.8558 5.29942 18.7782 3.22182ZM5.5146 19.0088C5.97467 16.3598 8.27014 14.4059 11 14.4059C13.73 14.4059 16.0253 16.3598 16.4854 19.0088C14.9236 20.0818 13.034 20.7109 11 20.7109C8.96603 20.7109 7.07642 20.0818 5.5146 19.0088ZM7.50241 9.61929C7.50241 7.69057 9.07144 6.1217 11 6.1217C12.9286 6.1217 14.4976 7.69073 14.4976 9.61929C14.4976 11.5479 12.9286 13.1169 11 13.1169C9.07144 13.1169 7.50241 11.5479 7.50241 9.61929ZM17.6019 18.1147C17.255 16.8815 16.566 15.7626 15.6002 14.8887C15.0077 14.3524 14.3333 13.9293 13.6082 13.631C14.9187 12.7762 15.7868 11.2973 15.7868 9.61929C15.7868 6.9799 13.6394 4.83264 11 4.83264C8.36061 4.83264 6.21335 6.9799 6.21335 9.61929C6.21335 11.2973 7.08145 12.7762 8.39183 13.631C7.6669 13.9293 6.99232 14.3522 6.39983 14.8885C5.4342 15.7625 4.74503 16.8813 4.39809 18.1145C2.48715 16.3399 1.28906 13.8074 1.28906 11C1.28906 5.64536 5.64536 1.28906 11 1.28906C16.3546 1.28906 20.7109 5.64536 20.7109 11C20.7109 13.8076 19.5128 16.34 17.6019 18.1147Z" fill="#5B8DEF"/>
</svg>
