<svg width="21" height="21" viewBox="0 0 21 21" fill="none" xmlns="http://www.w3.org/2000/svg">
<path d="M16.5973 13.0088C16.1674 12.5611 15.6489 12.3218 15.0993 12.3218C14.5541 12.3218 14.0311 12.5567 13.5835 13.0043L12.1829 14.4005C12.0676 14.3384 11.9524 14.2808 11.8416 14.2232C11.682 14.1434 11.5313 14.068 11.4028 13.9883C10.0909 13.155 8.89862 12.0691 7.75512 10.6641C7.20109 9.96383 6.82879 9.37435 6.55843 8.77601C6.92187 8.44359 7.25871 8.09788 7.58669 7.76547C7.7108 7.64136 7.8349 7.51283 7.959 7.38873C8.88976 6.45797 8.88976 5.25241 7.959 4.32165L6.74901 3.11166C6.61161 2.97426 6.46978 2.83243 6.33682 2.6906C6.07088 2.41581 5.79166 2.13215 5.50356 1.86622C5.07364 1.44073 4.55951 1.21468 4.01878 1.21468C3.47805 1.21468 2.95505 1.44073 2.51183 1.86622C2.5074 1.87065 2.5074 1.87065 2.50297 1.87508L0.996023 3.39532C0.428702 3.96264 0.105152 4.65407 0.0342367 5.45629C-0.072136 6.75049 0.309033 7.95605 0.601557 8.74498C1.31957 10.6818 2.39216 12.4769 3.99219 14.4005C5.93349 16.7185 8.26925 18.549 10.9374 19.8388C11.9568 20.3219 13.3175 20.8936 14.8378 20.9911C14.9308 20.9956 15.0283 21 15.117 21C16.1408 21 17.0007 20.6321 17.6744 19.9008C17.6788 19.8919 17.6877 19.8875 17.6921 19.8787C17.9226 19.5994 18.1885 19.3468 18.4677 19.0764C18.6583 18.8947 18.8533 18.7041 19.0439 18.5047C19.4827 18.0482 19.7132 17.5163 19.7132 16.9711C19.7132 16.4215 19.4783 15.8941 19.0306 15.4509L16.5973 13.0088ZM18.1841 17.6759C18.1796 17.6759 18.1796 17.6803 18.1841 17.6759C18.0112 17.862 17.8339 18.0304 17.6433 18.2166C17.3552 18.4914 17.0627 18.7795 16.7879 19.103C16.3403 19.5817 15.8128 19.8077 15.1214 19.8077C15.0549 19.8077 14.984 19.8077 14.9175 19.8033C13.6012 19.7191 12.3779 19.205 11.4604 18.7662C8.95181 17.5518 6.74901 15.8276 4.91851 13.6426C3.40714 11.8209 2.3966 10.1367 1.72733 8.32835C1.31514 7.22474 1.16445 6.36489 1.23093 5.5538C1.27525 5.03523 1.4747 4.60531 1.84257 4.23744L3.35395 2.72606C3.57113 2.52218 3.8016 2.41138 4.02764 2.41138C4.30687 2.41138 4.53291 2.5798 4.67474 2.72163C4.67918 2.72606 4.68361 2.73049 4.68804 2.73493C4.9584 2.98756 5.21547 3.24906 5.48583 3.52829C5.62323 3.67012 5.76506 3.81195 5.90689 3.95821L7.11688 5.1682C7.58669 5.63801 7.58669 6.07237 7.11688 6.54218C6.98835 6.67071 6.86425 6.79925 6.73571 6.92335C6.36341 7.30452 6.00883 7.65909 5.62323 8.0048C5.61437 8.01367 5.6055 8.0181 5.60107 8.02697C5.2199 8.40813 5.29082 8.78044 5.3706 9.03307C5.37503 9.04637 5.37946 9.05967 5.38389 9.07296C5.69858 9.8353 6.1418 10.5533 6.81549 11.4087L6.81993 11.4132C8.04321 12.9201 9.33298 14.0946 10.7557 14.9944C10.9374 15.1096 11.1236 15.2027 11.3009 15.2913C11.4604 15.3711 11.6111 15.4465 11.7397 15.5262C11.7574 15.5351 11.7751 15.5484 11.7928 15.5573C11.9435 15.6326 12.0854 15.6681 12.2316 15.6681C12.5995 15.6681 12.83 15.4376 12.9053 15.3622L14.4211 13.8464C14.5718 13.6957 14.8112 13.514 15.0904 13.514C15.3652 13.514 15.5912 13.6869 15.7286 13.8376C15.7331 13.842 15.7331 13.842 15.7375 13.8464L18.1796 16.2886C18.6362 16.7407 18.6362 17.206 18.1841 17.6759Z" fill="#5B8DEF"/>
<path d="M11.3489 4.99535C12.5101 5.19036 13.565 5.73995 14.4071 6.58207C15.2492 7.42419 15.7944 8.47905 15.9938 9.64029C16.0426 9.93281 16.2952 10.1367 16.5833 10.1367C16.6188 10.1367 16.6498 10.1323 16.6853 10.1278C17.0132 10.0746 17.2304 9.76439 17.1772 9.4364C16.9379 8.0314 16.2731 6.7505 15.2581 5.73552C14.2431 4.72055 12.9622 4.05572 11.5572 3.81638C11.2292 3.7632 10.9234 3.98037 10.8658 4.30392C10.8082 4.62747 11.0209 4.94216 11.3489 4.99535Z" fill="#5B8DEF"/>
<path d="M20.9756 9.26373C20.5812 6.95012 19.4908 4.84483 17.8155 3.16946C16.1401 1.49409 14.0348 0.40377 11.7212 0.00930522C11.3977 -0.0483133 11.0918 0.173296 11.0342 0.496847C10.981 0.824829 11.1982 1.13065 11.5262 1.18827C13.5916 1.53841 15.4753 2.51793 16.9734 4.01158C18.4714 5.50966 19.4465 7.39334 19.7967 9.45874C19.8454 9.75127 20.0981 9.95515 20.3861 9.95515C20.4216 9.95515 20.4526 9.95072 20.4881 9.94628C20.8116 9.89753 21.0332 9.58728 20.9756 9.26373Z" fill="#5B8DEF"/>
</svg>
