<svg width="22" height="22" viewBox="0 0 22 22" fill="none" xmlns="http://www.w3.org/2000/svg">
<g clip-path="url(#clip0)">
<path d="M15.8125 21.9482H2.52089C1.15789 21.9482 0.05 20.8403 0.05 19.4773V6.18565C0.05 4.82266 1.15789 3.71476 2.52089 3.71476H10.3125C10.6644 3.71476 10.95 4.00038 10.95 4.35226C10.95 4.70415 10.6644 4.98976 10.3125 4.98976H2.52089C1.86167 4.98976 1.325 5.52643 1.325 6.18565V19.4773C1.325 20.1365 1.86167 20.6732 2.52089 20.6732H15.8125C16.4717 20.6732 17.0084 20.1365 17.0084 19.4773V11.6857C17.0084 11.3338 17.294 11.0482 17.6459 11.0482C17.9978 11.0482 18.2834 11.333 18.2834 11.6857V19.4773C18.2834 20.8403 17.1755 21.9482 15.8125 21.9482Z" fill="#5B8DEF" stroke="#F2F2F5" stroke-width="0.1"/>
<path d="M7.59051 14.4069L7.59031 14.4067C7.43918 14.2563 7.37452 14.0395 7.41625 13.8312L7.41625 13.8312L8.06431 10.5899L8.06433 10.5898C8.0889 10.4659 8.15003 10.3528 8.23846 10.2643L17.7326 0.771438L17.7326 0.771433C18.6956 -0.191765 20.2627 -0.191796 21.2268 0.771436C21.6931 1.23773 21.95 1.85763 21.95 2.51811C21.95 3.17858 21.6931 3.79829 21.2258 4.26475L21.2258 4.26478L11.7328 13.7587L11.7327 13.7588C11.6445 13.8478 11.5307 13.9082 11.4073 13.9328L11.4072 13.9328L8.16678 14.5809L8.16653 14.5809C8.1249 14.5895 8.08245 14.5937 8.04096 14.5937C7.87345 14.5937 7.71022 14.5273 7.59051 14.4069ZM7.36722 13.8214H7.36722H7.36722ZM9.28712 11.0188L9.27641 11.0295L9.27344 11.0443L8.8691 13.0701L8.85442 13.1436L8.92794 13.1289L10.9529 12.7237L10.9677 12.7207L10.9784 12.71L20.3248 3.36383L20.3249 3.36375C20.5505 3.13708 20.675 2.83758 20.675 2.51811C20.675 2.19865 20.5505 1.89897 20.3249 1.67246L20.3249 1.67243C19.8598 1.20632 19.1012 1.20647 18.6336 1.67232L18.6335 1.67239L9.28712 11.0188ZM11.2915 13.2581H11.2823V13.3081V13.3581H11.2915V13.3081V13.2581Z" fill="#5B8DEF" stroke="#F2F2F5" stroke-width="0.1"/>
<path d="M19.9658 5.59802L19.9306 5.56256C19.8054 5.68695 19.6423 5.74977 19.4791 5.74977C19.3159 5.74977 19.1528 5.68767 19.0288 5.5628L19.0287 5.56267L16.4363 2.96944L16.4363 2.96944C16.1873 2.72041 16.1873 2.31667 16.4363 2.06764C16.6853 1.81863 17.089 1.8186 17.3382 2.06764C17.3383 2.06764 17.3383 2.06765 17.3383 2.06765L19.9305 4.66087L19.9305 4.66087C20.1795 4.9099 20.1795 5.31364 19.9305 5.56267L19.9658 5.59802ZM19.9658 5.59802C20.2344 5.32947 20.2344 4.89407 19.9658 4.62552L17.3736 2.03229C17.1049 1.76373 16.6695 1.76373 16.4009 2.03229C16.1324 2.30084 16.1324 2.73624 16.4009 3.00479L18.9933 5.59802C19.1271 5.7328 19.3032 5.79977 19.4791 5.79977C19.6552 5.79977 19.8311 5.73196 19.9658 5.59802Z" fill="#5B8DEF" stroke="#F2F2F5" stroke-width="0.1"/>
</g>
<defs>
<clipPath id="clip0">
<rect width="22" height="22" fill="white"/>
</clipPath>
</defs>
</svg>
