<svg width="22" height="22" viewBox="0 0 22 22" fill="none" xmlns="http://www.w3.org/2000/svg">
<g clip-path="url(#clip0)">
<path d="M21.8225 7.31961C21.7821 7.27703 20.8094 6.26538 18.9873 5.25819C17.3184 4.33574 14.5781 3.23612 11.0002 3.23612C7.4223 3.23612 4.68192 4.33574 3.01306 5.25823C1.19093 6.26542 0.218285 7.27708 0.177809 7.31966C0.0134962 7.49235 -0.0421054 7.74165 0.0332618 7.96776L2.58904 15.6351V18.1194C2.58904 18.4753 2.87762 18.7639 3.23357 18.7639H18.7668C19.1227 18.7639 19.4113 18.4753 19.4113 18.1194V15.6351L21.9671 7.96776C22.0425 7.74161 21.9869 7.49231 21.8225 7.31961ZM18.1222 17.4749H3.87811V16.1751H18.1222V17.4749ZM18.3022 14.886H3.69815L1.38639 7.95087C1.77027 7.6106 2.54874 6.98244 3.68307 6.3609C5.21138 5.52348 7.7214 4.52523 11.0002 4.52523C14.2789 4.52523 16.789 5.52348 18.3173 6.3609C19.4519 6.98265 20.2305 7.61094 20.614 7.95083L18.3022 14.886Z" fill="#5B8DEF"/>
<path d="M14.2361 7.76661H12.939V6.46947C12.939 6.11352 12.6504 5.82494 12.2945 5.82494H9.70559C9.34964 5.82494 9.06106 6.11352 9.06106 6.46947V7.76661H7.76392C7.40796 7.76661 7.11938 8.05519 7.11938 8.41114V11C7.11938 11.356 7.40796 11.6445 7.76392 11.6445H9.06106V12.9417C9.06106 13.2976 9.34964 13.5862 9.70559 13.5862H12.2945C12.6504 13.5862 12.939 13.2976 12.939 12.9417V11.6445H14.2361C14.5921 11.6445 14.8807 11.356 14.8807 11V8.41114C14.8807 8.05519 14.5921 7.76661 14.2361 7.76661ZM13.5916 10.3555H12.2945C11.9385 10.3555 11.6499 10.6441 11.6499 11V12.2971H10.3501V11C10.3501 10.6441 10.0615 10.3555 9.70559 10.3555H8.40845V9.05567H9.70559C10.0615 9.05567 10.3501 8.76709 10.3501 8.41114V7.114H11.6499V8.41114C11.6499 8.76709 11.9385 9.05567 12.2945 9.05567H13.5916V10.3555Z" fill="#5B8DEF"/>
</g>
<defs>
<clipPath id="clip0">
<rect width="22" height="22" fill="white"/>
</clipPath>
</defs>
</svg>
