<svg width="22" height="22" viewBox="0 0 22 22" fill="none" xmlns="http://www.w3.org/2000/svg">
<g clip-path="url(#clip0)">
<path d="M14.5195 7.04418L14.5308 7.07854H14.567H20.0627C20.8933 7.07854 21.5956 7.58813 21.8532 8.37775L21.9007 8.36224L21.8532 8.37775C22.1108 9.16733 21.8442 9.99299 21.1734 10.4828L16.7278 13.7292L16.6987 13.7505L16.7097 13.7849L18.3946 19.0405C18.6483 19.8318 18.3771 20.6563 17.7033 21.1425C17.0295 21.6288 16.1615 21.6265 15.4905 21.1364L11.0524 17.8954L11.0231 17.874L10.9937 17.8953L6.50223 21.1417L6.53152 21.1822L6.50222 21.1417C6.16615 21.3846 5.78214 21.5057 5.3988 21.5057C5.01195 21.5057 4.6249 21.3825 4.28714 21.1355L4.25762 21.1758L4.28714 21.1355C3.61534 20.6441 3.34978 19.8169 3.6101 19.0263L5.33592 13.7852L5.34736 13.7505L5.31772 13.7291L0.83407 10.4882C0.159168 10.0004 -0.110903 9.17429 0.145482 8.38206L0.097911 8.36667L0.145483 8.38206C0.401826 7.58983 1.10465 7.07854 1.93732 7.07854H7.47881H7.51528L7.52642 7.04381L9.20661 1.80264C9.46048 1.01071 10.161 0.497538 10.9926 0.494275L10.9932 0.494266L11.0006 0.494229C11.8288 0.494229 12.5296 1.00112 12.7889 1.78854L12.8364 1.7729L12.7889 1.78854L14.5195 7.04418ZM10.9976 1.68311L10.9973 1.68312C10.882 1.68361 10.4819 1.7192 10.3388 2.16557L8.38266 8.26743H1.93732C1.46796 8.26743 1.31218 8.63823 1.27663 8.74808C1.24108 8.85793 1.15012 9.24971 1.53052 9.52469L6.74858 13.2963L4.73935 19.3981C4.59258 19.8437 4.89581 20.1077 4.98897 20.1759L5.01849 20.1355L4.98898 20.1759C5.08219 20.2441 5.42556 20.453 5.80573 20.1782L11.0266 16.4044L16.1915 20.1762C16.5698 20.4524 16.9141 20.2459 17.0075 20.1785C17.1009 20.111 17.4054 19.8494 17.2624 19.4034L15.3046 13.2964L20.4723 9.52266C20.8503 9.24661 20.7587 8.85607 20.723 8.74651C20.6873 8.63694 20.531 8.26743 20.0628 8.26743H13.6707L11.6597 2.16038L11.6122 2.17602L11.6597 2.16038C11.5141 1.71816 11.1181 1.68311 10.9998 1.68311L10.9976 1.68311Z" fill="#5B8DEF" stroke="#F2F2F5" stroke-width="0.1"/>
</g>
<defs>
<clipPath id="clip0">
<rect width="22" height="22" fill="white"/>
</clipPath>
</defs>
</svg>
