<svg width="22" height="22" viewBox="0 0 22 22" fill="none" xmlns="http://www.w3.org/2000/svg">
<g clip-path="url(#clip0)">
<path d="M20.9998 11.0923V8.00027C20.9998 6.95179 20.1866 6.0991 19.159 6.01641L16.2875 1.00087C16.0214 0.537003 15.5917 0.205461 15.0775 0.0677913C14.5658 -0.0689409 14.0307 0.00287045 13.5727 0.269444L3.72897 6.00029H2.00011C0.897107 6.00029 0.00012207 6.89723 0.00012207 8.00027V20.0001C0.00012207 21.1031 0.897061 22.0001 2.00011 22.0001H18.9998C20.1028 22.0001 20.9998 21.1031 20.9998 20.0001V16.908C21.5806 16.7009 21.9998 16.1511 21.9998 15.5002V12.5002C21.9998 11.8492 21.5806 11.2994 20.9998 11.0923ZM17.9971 6.00029H13.6391L16.9076 4.09738L17.9971 6.00029ZM16.4108 3.2296L11.6517 6.00029H9.67768L15.9172 2.36754L16.4108 3.2296ZM14.0761 1.13366C14.3022 1.00134 14.5663 0.966183 14.8188 1.03359C15.0741 1.10193 15.287 1.26698 15.4194 1.49792L15.4204 1.49975L7.69036 6.00029H5.71644L14.0761 1.13366ZM19.9998 20.0001C19.9998 20.5513 19.5511 21 18.9998 21H2.00011C1.44886 21 1.00014 20.5513 1.00014 20.0001V8.00027C1.00014 7.44903 1.44886 7.00031 2.00011 7.00031H18.9998C19.5511 7.00031 19.9998 7.44903 19.9998 8.00027V11.0002H16.9999C15.3456 11.0002 13.9999 12.3459 13.9999 14.0002C13.9999 15.6545 15.3456 17.0001 16.9999 17.0001H19.9998V20.0001ZM20.9998 15.5002C20.9998 15.776 20.7757 16.0002 20.4998 16.0002H16.9999C15.8969 16.0002 14.9999 15.1032 14.9999 14.0002C14.9999 12.8972 15.8968 12.0002 16.9999 12.0002H20.4998C20.7757 12.0002 20.9998 12.2243 20.9998 12.5002V15.5002Z" fill="#5B8DEF"/>
<path d="M16.9998 13.0002C16.4486 13.0002 15.9999 13.4489 15.9999 14.0001C15.9999 14.5514 16.4486 15.0001 16.9998 15.0001C17.5511 15.0001 17.9998 14.5514 17.9998 14.0001C17.9999 13.4489 17.5511 13.0002 16.9998 13.0002Z" fill="#5B8DEF"/>
</g>
<defs>
<clipPath id="clip0">
<rect width="22" height="22" fill="white"/>
</clipPath>
</defs>
</svg>
