<svg width="22" height="22" viewBox="0 0 22 22" fill="none" xmlns="http://www.w3.org/2000/svg">
<path d="M9.41731 13.0908L14.86 7.64816L15.7007 8.48886L9.38196 14.8077L6.33693 11.7627L7.17763 10.9218L9.3466 13.0908L9.38196 13.1262L9.41731 13.0908Z" fill="#5B8DEF" stroke="white" stroke-width="0.1"/>
<path d="M6.58153 18.7518L6.56751 18.7098L6.5241 18.7186C4.55878 19.1202 2.54566 18.224 1.53596 16.475L1.49266 16.5L1.53596 16.475C0.524771 14.7236 0.758235 12.5326 2.08683 11.0332L2.11621 11L2.08683 10.9668C0.756411 9.46536 0.526098 7.27387 1.53596 5.525L1.53596 5.525C2.54699 3.77364 4.56126 2.88047 6.52427 3.28138L6.56768 3.29025L6.5817 3.24822C7.2166 1.34534 8.9994 0.05 11.0188 0.05C13.041 0.05 14.822 1.34766 15.4561 3.24822L15.4701 3.29025L15.5135 3.28138C17.4792 2.87981 19.4921 3.77596 20.5018 5.525L20.5451 5.5L20.5018 5.525C21.513 7.27636 21.2795 9.46735 19.9509 10.9668L19.9216 11L19.9509 11.0332C21.2814 12.5346 21.5117 14.7261 20.5018 16.475L20.5451 16.5L20.5018 16.475C19.4908 18.2264 17.4765 19.1197 15.5135 18.7186L15.4701 18.7098L15.4561 18.7518C14.8212 20.6547 13.0384 21.95 11.0188 21.95C8.99658 21.95 7.21577 20.6523 6.58153 18.7518ZM15.2478 4.58969L14.5767 4.83757L14.4559 4.1325C14.1684 2.45598 12.7229 1.23906 11.0188 1.23906C9.31487 1.23906 7.86932 2.45598 7.58187 4.1325L7.58187 4.13251L7.4611 4.83774L6.78994 4.58986C5.19431 4.00048 3.41759 4.64394 2.56571 6.11953C1.71366 7.59529 2.04483 9.45566 3.35301 10.5428L3.38497 10.5043L3.35301 10.5428L3.90326 11L3.35301 11.4572L3.38497 11.4957L3.35301 11.4572C2.04466 12.5445 1.71366 14.4049 2.56554 15.8805L2.60884 15.8555L2.56554 15.8805C3.41759 17.3561 5.19414 17.9997 6.78994 17.4103L6.77262 17.3634L6.78995 17.4103L7.46095 17.1623L7.58187 17.8675C7.86932 19.544 9.31487 20.7609 11.0188 20.7609C12.7229 20.7609 14.1685 19.544 14.4557 17.8675L14.5767 17.1623L15.2476 17.4101C15.2477 17.4101 15.2477 17.4101 15.2477 17.4101C15.645 17.5571 16.0541 17.6272 16.4569 17.6272C17.6713 17.6274 18.8324 16.9886 19.4721 15.8805C20.3239 14.4047 19.9929 12.5443 18.6848 11.4572L18.6528 11.4957L18.6848 11.4572L18.1345 11L18.6848 10.5428L18.6528 10.5043L18.6848 10.5428C19.9929 9.45549 20.3241 7.59513 19.4721 6.11953C18.62 4.64377 16.8435 4.00031 15.2478 4.58969Z" fill="#5B8DEF" stroke="white" stroke-width="0.1"/>
</svg>
