<svg width="21" height="21" viewBox="0 0 21 21" fill="none" xmlns="http://www.w3.org/2000/svg">
<path d="M16.5973 13.0087C16.1674 12.5611 15.6488 12.3217 15.0993 12.3217C14.5541 12.3217 14.0311 12.5566 13.5834 13.0043L12.1829 14.4004C12.0676 14.3384 11.9524 14.2808 11.8416 14.2232C11.682 14.1434 11.5313 14.068 11.4028 13.9882C10.0909 13.155 8.89862 12.0691 7.75511 10.6641C7.20109 9.96381 6.82878 9.37433 6.55842 8.77598C6.92186 8.44357 7.2587 8.09786 7.58669 7.76544C7.71079 7.64134 7.83489 7.51281 7.95899 7.38871C8.88975 6.45795 8.88975 5.25239 7.95899 4.32163L6.749 3.11164C6.6116 2.97424 6.46977 2.83241 6.33681 2.69058C6.07088 2.41579 5.79165 2.13212 5.50356 1.86619C5.07363 1.4407 4.5595 1.21466 4.01877 1.21466C3.47804 1.21466 2.95504 1.4407 2.51183 1.86619C2.50739 1.87063 2.50739 1.87063 2.50296 1.87506L0.996015 3.3953C0.428694 3.96262 0.105144 4.65404 0.034229 5.45627C-0.0721436 6.75047 0.309025 7.95603 0.60155 8.74496C1.31957 10.6818 2.39216 12.4769 3.99218 14.4004C5.93348 16.7185 8.26924 18.549 10.9374 19.8387C11.9568 20.3218 13.3175 20.8936 14.8378 20.9911C14.9308 20.9955 15.0283 21 15.117 21C16.1408 21 17.0007 20.6321 17.6744 19.9008C17.6788 19.8919 17.6877 19.8875 17.6921 19.8786C17.9226 19.5994 18.1885 19.3468 18.4677 19.0764C18.6583 18.8947 18.8533 18.7041 19.0439 18.5047C19.4827 18.0481 19.7132 17.5163 19.7132 16.9711C19.7132 16.4215 19.4783 15.8941 19.0306 15.4509L16.5973 13.0087ZM18.1841 17.6758C18.1796 17.6758 18.1796 17.6803 18.1841 17.6758C18.0112 17.862 17.8339 18.0304 17.6433 18.2166C17.3552 18.4914 17.0627 18.7794 16.7879 19.103C16.3403 19.5817 15.8128 19.8077 15.1214 19.8077C15.0549 19.8077 14.984 19.8077 14.9175 19.8033C13.6012 19.7191 12.3779 19.2049 11.4604 18.7661C8.9518 17.5517 6.749 15.8276 4.91851 13.6425C3.40713 11.8209 2.39659 10.1367 1.72733 8.32833C1.31513 7.22472 1.16444 6.36487 1.23092 5.55378C1.27524 5.03521 1.47469 4.60529 1.84256 4.23742L3.35394 2.72604C3.57112 2.52216 3.80159 2.41135 4.02764 2.41135C4.30686 2.41135 4.53291 2.57978 4.67474 2.72161C4.67917 2.72604 4.6836 2.73047 4.68803 2.7349C4.9584 2.98754 5.21546 3.24904 5.48583 3.52827C5.62323 3.6701 5.76506 3.81193 5.90689 3.95819L7.11687 5.16818C7.58669 5.63799 7.58669 6.07235 7.11687 6.54216C6.98834 6.67069 6.86424 6.79922 6.73571 6.92333C6.3634 7.30449 6.00883 7.65907 5.62323 8.00478C5.61436 8.01365 5.6055 8.01808 5.60106 8.02694C5.2199 8.40811 5.29081 8.78042 5.37059 9.03305C5.37502 9.04635 5.37945 9.05964 5.38389 9.07294C5.69857 9.83528 6.14179 10.5533 6.81549 11.4087L6.81992 11.4131C8.0432 12.9201 9.33297 14.0946 10.7557 14.9944C10.9374 15.1096 11.1236 15.2027 11.3009 15.2913C11.4604 15.3711 11.6111 15.4464 11.7397 15.5262C11.7574 15.5351 11.7751 15.5484 11.7928 15.5572C11.9435 15.6326 12.0854 15.668 12.2316 15.668C12.5995 15.668 12.83 15.4376 12.9053 15.3622L14.4211 13.8464C14.5718 13.6957 14.8112 13.514 15.0904 13.514C15.3652 13.514 15.5912 13.6869 15.7286 13.8375C15.7331 13.842 15.7331 13.842 15.7375 13.8464L18.1796 16.2886C18.6361 16.7406 18.6361 17.206 18.1841 17.6758Z" fill="#5B8DEF"/>
<path d="M11.3489 4.99532C12.5101 5.19034 13.565 5.73993 14.4071 6.58205C15.2492 7.42417 15.7944 8.47903 15.9938 9.64026C16.0426 9.93279 16.2952 10.1367 16.5833 10.1367C16.6188 10.1367 16.6498 10.1322 16.6852 10.1278C17.0132 10.0746 17.2304 9.76436 17.1772 9.43638C16.9379 8.03138 16.2731 6.75047 15.2581 5.7355C14.2431 4.72053 12.9622 4.0557 11.5572 3.81636C11.2292 3.76317 10.9234 3.98035 10.8658 4.3039C10.8082 4.62745 11.0209 4.94214 11.3489 4.99532Z" fill="#5B8DEF"/>
<path d="M20.9756 9.26373C20.5812 6.95012 19.4908 4.84483 17.8155 3.16946C16.1401 1.49409 14.0348 0.40377 11.7212 0.00930522C11.3977 -0.0483133 11.0918 0.173296 11.0342 0.496847C10.981 0.824829 11.1982 1.13065 11.5262 1.18827C13.5916 1.53841 15.4753 2.51793 16.9734 4.01158C18.4714 5.50966 19.4465 7.39334 19.7967 9.45874C19.8454 9.75127 20.0981 9.95515 20.3861 9.95515C20.4216 9.95515 20.4526 9.95072 20.4881 9.94628C20.8116 9.89753 21.0332 9.58728 20.9756 9.26373Z" fill="#5B8DEF"/>
</svg>
