<svg width="15" height="15" viewBox="0 0 15 15" fill="none" xmlns="http://www.w3.org/2000/svg">
<path d="M3.74248 6.12305H2.81256C2.69579 6.12305 2.58378 6.16954 2.50131 6.25225C2.41884 6.33495 2.37273 6.4471 2.37311 6.56391L2.37958 9.90214C2.37958 10.1448 2.57634 10.3416 2.81904 10.3416C3.06173 10.3416 3.25849 10.1448 3.25849 9.90214V8.88855C3.43817 8.88765 3.63012 8.88686 3.74248 8.88686C4.51462 8.88686 5.14284 8.26693 5.14284 7.50495C5.14284 6.74297 4.51462 6.12305 3.74248 6.12305ZM3.74248 8.00795C3.62913 8.00795 3.43647 8.00874 3.25609 8.00968C3.25515 7.82259 3.25433 7.62111 3.25433 7.50495C3.25433 7.40555 3.25383 7.19751 3.25331 7.00195H3.74245C4.0251 7.00195 4.2639 7.23229 4.2639 7.50495C4.2639 7.77762 4.02513 8.00795 3.74248 8.00795Z" fill="#5B8DEF"/>
<path d="M7.48037 6.12305H6.5625C6.44581 6.12305 6.3339 6.16945 6.25146 6.25204C6.16901 6.33463 6.12281 6.44663 6.12305 6.56332C6.12305 6.56335 6.12958 9.79318 6.12961 9.8049C6.13005 9.92147 6.17675 10.0331 6.25948 10.1152C6.34184 10.197 6.45311 10.2428 6.56906 10.2428H6.57073C6.59848 10.2427 7.25317 10.2402 7.51491 10.2356C8.5079 10.2183 9.2286 9.35496 9.2286 8.18291C9.22857 6.95086 8.52604 6.12305 7.48037 6.12305ZM7.49956 9.35684C7.38574 9.35883 7.18992 9.36044 7.00705 9.36161C7.00582 8.9799 7.00342 7.39863 7.00274 7.00195H7.48037C8.287 7.00195 8.34967 7.90588 8.34967 8.18294C8.34967 8.75985 8.08682 9.34658 7.49956 9.35684Z" fill="#5B8DEF"/>
<path d="M12.1249 6.96826C12.3676 6.96826 12.5643 6.7715 12.5643 6.52881C12.5643 6.28611 12.3676 6.08936 12.1249 6.08936H10.7812C10.5386 6.08936 10.3418 6.28611 10.3418 6.52881V9.84397C10.3418 10.0867 10.5386 10.2834 10.7812 10.2834C11.0239 10.2834 11.2207 10.0867 11.2207 9.84397V8.59446H12.0182C12.2609 8.59446 12.4576 8.39771 12.4576 8.15501C12.4576 7.91232 12.2609 7.71556 12.0182 7.71556H11.2207V6.96826H12.1249Z" fill="#5B8DEF"/>
<path d="M13.418 4.24805H13.0957V4.12269C13.0957 3.55778 12.8817 3.02092 12.493 2.61094L10.6677 0.685518C10.2546 0.249873 9.67345 0 9.0731 0H3.22266C2.49571 0 1.9043 0.591416 1.9043 1.31836V4.24805H1.58203C0.855088 4.24805 0.263672 4.83946 0.263672 5.56641V10.8398C0.263672 11.5668 0.855088 12.1582 1.58203 12.1582H1.9043V13.6816C1.9043 14.4086 2.49571 15 3.22266 15H11.7773C12.5043 15 13.0957 14.4086 13.0957 13.6816V12.1582H13.418C14.1449 12.1582 14.7363 11.5668 14.7363 10.8398V5.56641C14.7363 4.83946 14.1449 4.24805 13.418 4.24805ZM2.7832 1.31836C2.7832 1.07604 2.98034 0.878906 3.22266 0.878906H9.0731C9.4333 0.878906 9.78202 1.02882 10.0298 1.29023L11.8552 3.21565C12.0884 3.46163 12.2168 3.78375 12.2168 4.12269V4.24805H2.7832V1.31836ZM12.2168 13.6816C12.2168 13.924 12.0197 14.1211 11.7773 14.1211H3.22266C2.98034 14.1211 2.7832 13.924 2.7832 13.6816V12.1582H12.2168V13.6816ZM13.8574 10.8398C13.8574 11.0822 13.6603 11.2793 13.418 11.2793H1.58203C1.33972 11.2793 1.14258 11.0822 1.14258 10.8398V5.56641C1.14258 5.32409 1.33972 5.12695 1.58203 5.12695H13.418C13.6603 5.12695 13.8574 5.32409 13.8574 5.56641V10.8398Z" fill="#5B8DEF"/>
</svg>