<svg width="15" height="15" viewBox="0 0 15 15" fill="none" xmlns="http://www.w3.org/2000/svg">
<g clip-path="url(#clip0)">
<path d="M13.8781 13.2422V9.21992H14.95V13.2422C14.95 14.1838 14.1838 14.95 13.2422 14.95H1.75781C0.816169 14.95 0.05 14.1838 0.05 13.2422V9.21992H1.12188V13.2422C1.12188 13.5929 1.40711 13.8781 1.75781 13.8781H13.2422C13.5929 13.8781 13.8781 13.5929 13.8781 13.2422Z" fill="#5B8DEF" stroke="white" stroke-width="0.1"/>
<path d="M6.96408 9.13231V0.05H8.03596V9.13231V9.25302L8.12131 9.16766L10.3125 6.97645L11.0704 7.73438L7.50002 11.3048L3.9296 7.73438L4.68752 6.97645L6.87873 9.16766L6.96408 9.25302V9.13231Z" fill="#5B8DEF" stroke="white" stroke-width="0.1"/>
</g>
<defs>
<clipPath id="clip0">
<rect width="15" height="15" fill="white"/>
</clipPath>
</defs>
</svg>