<svg width="18" height="18" viewBox="0 0 18 18" fill="none" xmlns="http://www.w3.org/2000/svg">
<path d="M5.04918 15.3325H5.05926V15.2325H5.04918V15.3325ZM1.0186 16.4843L1.01839 16.4841C0.852433 16.319 0.781442 16.0809 0.827258 15.8522L0.827261 15.8522L1.53423 12.3162L1.53425 12.3162C1.56123 12.1801 1.62837 12.0558 1.72546 11.9587L12.0827 1.60285L12.0827 1.60284C13.135 0.550305 14.8475 0.550274 15.901 1.60284C16.4105 2.11239 16.6913 2.78979 16.6913 3.51152C16.6913 4.23324 16.4105 4.91044 15.8999 5.42016L15.8999 5.4202L5.54392 15.7772L5.54377 15.7773C5.44692 15.875 5.32191 15.9414 5.18644 15.9684L5.18641 15.9684L1.65136 16.6754L1.65112 16.6754C1.6054 16.6848 1.55878 16.6894 1.51322 16.6894C1.32929 16.6894 1.15005 16.6166 1.0186 16.4843ZM2.87588 12.7882L2.86517 12.7989L2.8622 12.8137L2.4211 15.0236L2.40642 15.0972L2.47994 15.0825L4.68894 14.6404L4.70378 14.6375L4.71448 14.6268L14.9106 4.43091L14.9107 4.43083C15.1559 4.1844 15.2912 3.85882 15.2912 3.51152C15.2912 3.16423 15.1559 2.83845 14.9106 2.5922L14.9106 2.59217C14.4051 2.08547 13.5804 2.08563 13.072 2.59207L13.072 2.59213L2.87588 12.7882Z" fill="#5B8DEF" stroke="white" stroke-width="0.1"/>
<path d="M14.5222 6.87183L14.487 6.83636C14.3496 6.97293 14.1704 7.04192 13.9912 7.04192C13.812 7.04192 13.6329 6.97373 13.4968 6.8366L13.4967 6.83648L10.6686 4.0075L10.6686 4.00749C10.3952 3.73405 10.3952 3.29073 10.6686 3.01729C10.942 2.74386 11.3853 2.74384 11.659 3.01728C11.659 3.01729 11.659 3.01729 11.659 3.0173L14.4869 5.84626L14.4869 5.84627C14.7603 6.11971 14.7603 6.56303 14.4869 6.83647L14.5222 6.87183ZM14.5222 6.87183C14.8152 6.57886 14.8152 6.10388 14.5222 5.81091L13.4613 6.87183C13.6072 7.01886 13.7993 7.09192 13.9912 7.09192C14.1833 7.09192 14.3752 7.01794 14.5222 6.87183Z" fill="#5B8DEF" stroke="white" stroke-width="0.1"/>
</svg>