<svg width="15" height="15" viewBox="0 0 15 15" fill="none" xmlns="http://www.w3.org/2000/svg">
<g clip-path="url(#clip0)">
<path d="M14.5606 7.06053C14.3179 7.06053 14.1212 7.25729 14.1212 7.49998C14.1212 11.1509 11.1509 14.121 7.50011 14.121C3.84924 14.121 0.879053 11.1509 0.879053 7.49998C0.879053 3.84912 3.84924 0.878929 7.50011 0.878929C8.61335 0.878929 9.69625 1.15534 10.663 1.68204L10.1136 2.23144C9.98787 2.35712 9.95028 2.54612 10.0183 2.71035C10.0863 2.87456 10.2465 2.98164 10.4243 2.98164H12.527C12.7697 2.98164 12.9664 2.78488 12.9664 2.54219V0.439478C12.9664 0.261735 12.8594 0.101511 12.6951 0.0334843C12.5309 -0.0345719 12.3419 0.00304506 12.2162 0.128757L11.3075 1.03745C10.1565 0.357857 8.84781 5.67878e-05 7.50008 5.67878e-05C5.49677 5.67878e-05 3.61334 0.780199 2.19679 2.19672C0.780235 3.61331 0.00012207 5.49671 0.00012207 7.50001C0.00012207 9.50332 0.780235 11.3867 2.19679 12.8033C3.61337 14.2199 5.49677 15 7.50008 15C9.50339 15 11.3868 14.2199 12.8033 12.8033C14.2199 11.3867 15 9.50332 15 7.50001C15.0001 7.25729 14.8033 7.06053 14.5606 7.06053Z" fill="#5B8DEF"/>
<path d="M10.3242 7.06052H7.93951V4.67578C7.93951 4.43308 7.74275 4.23633 7.50006 4.23633C7.25736 4.23633 7.06061 4.43308 7.06061 4.67578V7.49997C7.06061 7.74266 7.25736 7.93942 7.50006 7.93942H10.3242C10.5669 7.93942 10.7637 7.74266 10.7637 7.49997C10.7637 7.25727 10.5669 7.06052 10.3242 7.06052Z" fill="#5B8DEF"/>
</g>
<defs>
<clipPath id="clip0">
<rect width="15" height="15" fill="white"/>
</clipPath>
</defs>
</svg>