<svg width="15" height="15" viewBox="0 0 15 15" fill="none" xmlns="http://www.w3.org/2000/svg">
<path d="M13.418 4.24805H13.0957V4.12269C13.0957 3.55778 12.8817 3.02092 12.493 2.61094L10.6677 0.685518C10.2546 0.249873 9.67345 0 9.0731 0H3.22266C2.49571 0 1.9043 0.591416 1.9043 1.31836V4.24805H1.58203C0.855088 4.24805 0.263672 4.83946 0.263672 5.56641V10.8398C0.263672 11.5668 0.855088 12.1582 1.58203 12.1582H1.9043V13.6816C1.9043 14.4086 2.49571 15 3.22266 15H11.7773C12.5043 15 13.0957 14.4086 13.0957 13.6816V12.1582H13.418C14.1449 12.1582 14.7363 11.5668 14.7363 10.8398V5.56641C14.7363 4.83946 14.1449 4.24805 13.418 4.24805ZM2.7832 1.31836C2.7832 1.07604 2.98034 0.878906 3.22266 0.878906H9.0731C9.4333 0.878906 9.78202 1.02882 10.0298 1.29023L11.8552 3.21565C12.0884 3.46163 12.2168 3.78375 12.2168 4.12269V4.24805H2.7832V1.31836ZM12.2168 13.6816C12.2168 13.924 12.0197 14.1211 11.7773 14.1211H3.22266C2.98034 14.1211 2.7832 13.924 2.7832 13.6816V12.1582H12.2168V13.6816ZM13.8574 10.8398C13.8574 11.0822 13.6603 11.2793 13.418 11.2793H1.58203C1.33972 11.2793 1.14258 11.0822 1.14258 10.8398V5.56641C1.14258 5.32409 1.33972 5.12695 1.58203 5.12695H13.418C13.6603 5.12695 13.8574 5.32409 13.8574 5.56641V10.8398Z" fill="#5B8DEF"/>
</svg>
